<?xml version="1.0" encoding="UTF-8" standalone="no"?>
<!DOCTYPE svg PUBLIC "-//W3C//DTD SVG 1.1//EN"
 "http://www.w3.org/Graphics/SVG/1.1/DTD/svg11.dtd">
<!-- Generated by graphviz version 2.38.0 (20140413.2041)
 -->
<!-- Title: controllers_diagram Pages: 1 -->
<svg width="588pt" height="1156pt"
 viewBox="0.00 0.00 588.34 1156.08" xmlns="http://www.w3.org/2000/svg" xmlns:xlink="http://www.w3.org/1999/xlink">
<g id="graph0" class="graph" transform="scale(1 1) rotate(0) translate(248.335 542.486)">
<title>controllers_diagram</title>
<polygon fill="none" stroke="none" points="-248.335,613.591 -248.335,-542.486 340,-542.486 340,613.591 -248.335,613.591"/>
<!-- _diagram_info -->
<g id="node1" class="node"><title>_diagram_info</title>
<text text-anchor="start" x="130" y="-185.6" font-family="Times,serif" font-size="13.00">Controllers diagram</text>
<text text-anchor="start" x="130" y="-171.6" font-family="Times,serif" font-size="13.00">Date: Apr 02 2020 &#45; 18:50</text>
<text text-anchor="start" x="130" y="-157.6" font-family="Times,serif" font-size="13.00">Migration version: 20191208225048</text>
<text text-anchor="start" x="130" y="-143.6" font-family="Times,serif" font-size="13.00">Generated by RailRoady 1.5.3</text>
<text text-anchor="start" x="130" y="-129.6" font-family="Times,serif" font-size="13.00">http://railroady.prestonlee.com</text>
</g>
<!-- StudentsController -->
<g id="node2" class="node"><title>StudentsController</title>
<path fill="none" stroke="black" d="M-232.335,465.097C-232.335,465.097 -96.3354,465.097 -96.3354,465.097 -90.3354,465.097 -84.3354,459.097 -84.3354,453.097 -84.3354,453.097 -84.3354,189.097 -84.3354,189.097 -84.3354,183.097 -90.3354,177.097 -96.3354,177.097 -96.3354,177.097 -232.335,177.097 -232.335,177.097 -238.335,177.097 -244.335,183.097 -244.335,189.097 -244.335,189.097 -244.335,453.097 -244.335,453.097 -244.335,459.097 -238.335,465.097 -232.335,465.097"/>
<text text-anchor="middle" x="-164.335" y="192.297" font-family="Times,serif" font-size="14.00">StudentsController</text>
<polyline fill="none" stroke="black" points="-244.335,200.097 -84.3354,200.097 "/>
<text text-anchor="start" x="-236.335" y="215.297" font-family="Times,serif" font-size="14.00">add_new_student</text>
<text text-anchor="start" x="-236.335" y="230.297" font-family="Times,serif" font-size="14.00">add_student</text>
<text text-anchor="start" x="-236.335" y="245.297" font-family="Times,serif" font-size="14.00">add_student_to_database</text>
<text text-anchor="start" x="-236.335" y="260.297" font-family="Times,serif" font-size="14.00">confirm_email</text>
<text text-anchor="start" x="-236.335" y="275.297" font-family="Times,serif" font-size="14.00">create</text>
<text text-anchor="start" x="-236.335" y="290.297" font-family="Times,serif" font-size="14.00">initForNewForceRequest</text>
<text text-anchor="start" x="-236.335" y="305.297" font-family="Times,serif" font-size="14.00">profile</text>
<text text-anchor="start" x="-236.335" y="320.297" font-family="Times,serif" font-size="14.00">reset_password</text>
<text text-anchor="start" x="-236.335" y="335.297" font-family="Times,serif" font-size="14.00">sent_reset_password_mail</text>
<text text-anchor="start" x="-236.335" y="350.297" font-family="Times,serif" font-size="14.00">show</text>
<text text-anchor="start" x="-236.335" y="365.297" font-family="Times,serif" font-size="14.00">signup</text>
<text text-anchor="start" x="-236.335" y="380.297" font-family="Times,serif" font-size="14.00">update_password</text>
<text text-anchor="start" x="-236.335" y="395.297" font-family="Times,serif" font-size="14.00">update_profile</text>
<text text-anchor="start" x="-236.335" y="410.297" font-family="Times,serif" font-size="14.00">update_reset_password</text>
<polyline fill="none" stroke="black" points="-244.335,418.097 -84.3354,418.097 "/>
<polyline fill="none" stroke="black" points="-244.335,442.097 -84.3354,442.097 "/>
<text text-anchor="start" x="-236.335" y="457.297" font-family="Times,serif" font-size="14.00">_layout</text>
</g>
<!-- StudentRequestsController -->
<g id="node3" class="node"><title>StudentRequestsController</title>
<path fill="none" stroke="black" d="M70.2286,609.091C70.2286,609.091 245.229,609.091 245.229,609.091 251.229,609.091 257.229,603.091 257.229,597.091 257.229,597.091 257.229,-11.909 257.229,-11.909 257.229,-17.909 251.229,-23.909 245.229,-23.909 245.229,-23.909 70.2286,-23.909 70.2286,-23.909 64.2286,-23.909 58.2286,-17.909 58.2286,-11.909 58.2286,-11.909 58.2286,597.091 58.2286,597.091 58.2286,603.091 64.2286,609.091 70.2286,609.091"/>
<text text-anchor="middle" x="157.729" y="-8.709" font-family="Times,serif" font-size="14.00">StudentRequestsController</text>
<polyline fill="none" stroke="black" points="58.2286,-0.909004 257.229,-0.909004 "/>
<text text-anchor="start" x="66.2286" y="14.291" font-family="Times,serif" font-size="14.00">add_force_request</text>
<text text-anchor="start" x="66.2286" y="29.291" font-family="Times,serif" font-size="14.00">add_new_force_request</text>
<text text-anchor="start" x="66.2286" y="44.291" font-family="Times,serif" font-size="14.00">admin_log</text>
<text text-anchor="start" x="66.2286" y="59.291" font-family="Times,serif" font-size="14.00">adminprivileges</text>
<text text-anchor="start" x="66.2286" y="74.291" font-family="Times,serif" font-size="14.00">adminview</text>
<text text-anchor="start" x="66.2286" y="89.291" font-family="Times,serif" font-size="14.00">cancel</text>
<text text-anchor="start" x="66.2286" y="104.291" font-family="Times,serif" font-size="14.00">compare_request</text>
<text text-anchor="start" x="66.2286" y="119.291" font-family="Times,serif" font-size="14.00">create</text>
<text text-anchor="start" x="66.2286" y="134.291" font-family="Times,serif" font-size="14.00">createlimits</text>
<text text-anchor="start" x="66.2286" y="149.291" font-family="Times,serif" font-size="14.00">deleteall</text>
<text text-anchor="start" x="66.2286" y="164.291" font-family="Times,serif" font-size="14.00">edit</text>
<text text-anchor="start" x="66.2286" y="179.291" font-family="Times,serif" font-size="14.00">edit_email_template</text>
<text text-anchor="start" x="66.2286" y="194.291" font-family="Times,serif" font-size="14.00">edit_request</text>
<text text-anchor="start" x="66.2286" y="209.291" font-family="Times,serif" font-size="14.00">email_the_status</text>
<text text-anchor="start" x="66.2286" y="224.291" font-family="Times,serif" font-size="14.00">getAllLogs</text>
<text text-anchor="start" x="66.2286" y="239.291" font-family="Times,serif" font-size="14.00">getSpreadsheetAllCourses</text>
<text text-anchor="start" x="66.2286" y="254.291" font-family="Times,serif" font-size="14.00">getStudentInformationById</text>
<text text-anchor="start" x="66.2286" y="269.291" font-family="Times,serif" font-size="14.00">getStudentInformationByUin</text>
<text text-anchor="start" x="66.2286" y="284.291" font-family="Times,serif" font-size="14.00">get_email_template</text>
<text text-anchor="start" x="66.2286" y="299.291" font-family="Times,serif" font-size="14.00">get_position</text>
<text text-anchor="start" x="66.2286" y="314.291" font-family="Times,serif" font-size="14.00">hold</text>
<text text-anchor="start" x="66.2286" y="329.291" font-family="Times,serif" font-size="14.00">index</text>
<text text-anchor="start" x="66.2286" y="344.291" font-family="Times,serif" font-size="14.00">initForNewForceRequest</text>
<text text-anchor="start" x="66.2286" y="359.291" font-family="Times,serif" font-size="14.00">login</text>
<text text-anchor="start" x="66.2286" y="374.291" font-family="Times,serif" font-size="14.00">logout</text>
<text text-anchor="start" x="66.2286" y="389.291" font-family="Times,serif" font-size="14.00">multiupdate</text>
<text text-anchor="start" x="66.2286" y="404.291" font-family="Times,serif" font-size="14.00">multiupdate_without_notification</text>
<text text-anchor="start" x="66.2286" y="419.291" font-family="Times,serif" font-size="14.00">new</text>
<text text-anchor="start" x="66.2286" y="434.291" font-family="Times,serif" font-size="14.00">reject</text>
<text text-anchor="start" x="66.2286" y="449.291" font-family="Times,serif" font-size="14.00">sample_controller</text>
<text text-anchor="start" x="66.2286" y="464.291" font-family="Times,serif" font-size="14.00">set_request_limit</text>
<text text-anchor="start" x="66.2286" y="479.291" font-family="Times,serif" font-size="14.00">student_request_params</text>
<text text-anchor="start" x="66.2286" y="494.291" font-family="Times,serif" font-size="14.00">temporary_email</text>
<text text-anchor="start" x="66.2286" y="509.291" font-family="Times,serif" font-size="14.00">update</text>
<text text-anchor="start" x="66.2286" y="524.291" font-family="Times,serif" font-size="14.00">update_request</text>
<text text-anchor="start" x="66.2286" y="539.291" font-family="Times,serif" font-size="14.00">updaterequestbyadmin</text>
<text text-anchor="start" x="66.2286" y="554.291" font-family="Times,serif" font-size="14.00">view_logs</text>
<polyline fill="none" stroke="black" points="58.2286,562.091 257.229,562.091 "/>
<polyline fill="none" stroke="black" points="58.2286,586.091 257.229,586.091 "/>
<text text-anchor="start" x="66.2286" y="601.291" font-family="Times,serif" font-size="14.00">_layout</text>
</g>
<!-- ApplicationController -->
<g id="node4" class="node"><title>ApplicationController</title>
<path fill="none" stroke="black" d="M-82.5173,-60.7807C-82.5173,-60.7807 29.4827,-60.7807 29.4827,-60.7807 35.4827,-60.7807 41.4827,-66.7807 41.4827,-72.7807 41.4827,-72.7807 41.4827,-141.781 41.4827,-141.781 41.4827,-147.781 35.4827,-153.781 29.4827,-153.781 29.4827,-153.781 -82.5173,-153.781 -82.5173,-153.781 -88.5173,-153.781 -94.5173,-147.781 -94.5173,-141.781 -94.5173,-141.781 -94.5173,-72.7807 -94.5173,-72.7807 -94.5173,-66.7807 -88.5173,-60.7807 -82.5173,-60.7807"/>
<text text-anchor="middle" x="-26.5173" y="-138.581" font-family="Times,serif" font-size="14.00">ApplicationController</text>
<polyline fill="none" stroke="black" points="-94.5173,-130.781 41.4827,-130.781 "/>
<text text-anchor="start" x="-86.5173" y="-115.581" font-family="Times,serif" font-size="14.00">set_cache_buster</text>
<polyline fill="none" stroke="black" points="-94.5173,-107.781 41.4827,-107.781 "/>
<polyline fill="none" stroke="black" points="-94.5173,-83.7807 41.4827,-83.7807 "/>
<text text-anchor="start" x="-86.5173" y="-68.5807" font-family="Times,serif" font-size="14.00">_layout</text>
</g>
<!-- ApplicationController&#45;&gt;StudentsController -->
<g id="edge1" class="edge"><title>ApplicationController&#45;&gt;StudentsController</title>
<path fill="none" stroke="black" d="M-41.5286,-60.6213C-59.7372,-4.02404 -91.2942,94.0642 -117.859,176.635"/>
</g>
<!-- ApplicationController&#45;&gt;StudentRequestsController -->
<g id="edge2" class="edge"><title>ApplicationController&#45;&gt;StudentRequestsController</title>
<path fill="none" stroke="black" d="M-5.0214,-60.6278C11.0211,-25.8105 34.2049,24.5056 58.0678,76.2956"/>
</g>
<!-- AdminsController -->
<g id="node5" class="node"><title>AdminsController</title>
<path fill="none" stroke="black" d="M-52.1483,-414.986C-52.1483,-414.986 39.8517,-414.986 39.8517,-414.986 45.8517,-414.986 51.8517,-420.986 51.8517,-426.986 51.8517,-426.986 51.8517,-525.986 51.8517,-525.986 51.8517,-531.986 45.8517,-537.986 39.8517,-537.986 39.8517,-537.986 -52.1483,-537.986 -52.1483,-537.986 -58.1483,-537.986 -64.1483,-531.986 -64.1483,-525.986 -64.1483,-525.986 -64.1483,-426.986 -64.1483,-426.986 -64.1483,-420.986 -58.1483,-414.986 -52.1483,-414.986"/>
<text text-anchor="middle" x="-6.14828" y="-522.786" font-family="Times,serif" font-size="14.00">AdminsController</text>
<polyline fill="none" stroke="black" points="-64.1483,-514.986 51.8517,-514.986 "/>
<text text-anchor="start" x="-56.1483" y="-499.786" font-family="Times,serif" font-size="14.00">addAdmin</text>
<text text-anchor="start" x="-56.1483" y="-484.786" font-family="Times,serif" font-size="14.00">aes256_decrypt</text>
<text text-anchor="start" x="-56.1483" y="-469.786" font-family="Times,serif" font-size="14.00">encrypt</text>
<polyline fill="none" stroke="black" points="-64.1483,-461.986 51.8517,-461.986 "/>
<polyline fill="none" stroke="black" points="-64.1483,-437.986 51.8517,-437.986 "/>
<text text-anchor="start" x="-56.1483" y="-422.786" font-family="Times,serif" font-size="14.00">_layout</text>
</g>
<!-- ApplicationController&#45;&gt;AdminsController -->
<g id="edge3" class="edge"><title>ApplicationController&#45;&gt;AdminsController</title>
<path fill="none" stroke="black" d="M-23.9376,-154.041C-20.2871,-220.208 -13.6083,-341.267 -9.5542,-414.751"/>
</g>
</g>
</svg>
