<?xml version="1.0" encoding="UTF-8" standalone="no"?>
<!DOCTYPE svg PUBLIC "-//W3C//DTD SVG 1.1//EN"
 "http://www.w3.org/Graphics/SVG/1.1/DTD/svg11.dtd">
<!-- Generated by graphviz version 2.38.0 (20140413.2041)
 -->
<!-- Title: models_diagram Pages: 1 -->
<svg width="1723pt" height="573pt"
 viewBox="0.00 0.00 1723.00 573.00" xmlns="http://www.w3.org/2000/svg" xmlns:xlink="http://www.w3.org/1999/xlink">
<g id="graph0" class="graph" transform="scale(1 1) rotate(0) translate(4 569)">
<title>models_diagram</title>
<polygon fill="none" stroke="none" points="-4,4 -4,-569 1719,-569 1719,4 -4,4"/>
<!-- _diagram_info -->
<g id="node1" class="node"><title>_diagram_info</title>
<text text-anchor="start" x="83" y="-416.1" font-family="Times,serif" font-size="13.00">Models diagram</text>
<text text-anchor="start" x="83" y="-402.1" font-family="Times,serif" font-size="13.00">Date: Apr 02 2020 &#45; 18:50</text>
<text text-anchor="start" x="83" y="-388.1" font-family="Times,serif" font-size="13.00">Migration version: 20191208225048</text>
<text text-anchor="start" x="83" y="-374.1" font-family="Times,serif" font-size="13.00">Generated by RailRoady 1.5.3</text>
<text text-anchor="start" x="83" y="-360.1" font-family="Times,serif" font-size="13.00">http://railroady.prestonlee.com</text>
</g>
<!-- ApplicationRecord -->
<g id="node2" class="node"><title>ApplicationRecord</title>
<ellipse fill="none" stroke="black" cx="384" cy="-391.5" rx="77.1866" ry="18"/>
<text text-anchor="middle" x="384" y="-387.8" font-family="Times,serif" font-size="14.00">ApplicationRecord</text>
</g>
<!-- Log -->
<g id="node3" class="node"><title>Log</title>
<path fill="none" stroke="black" d="M12,-23C12,-23 232,-23 232,-23 238,-23 244,-29 244,-35 244,-35 244,-132 244,-132 244,-138 238,-144 232,-144 232,-144 12,-144 12,-144 6,-144 0,-138 0,-132 0,-132 0,-35 0,-35 0,-29 6,-23 12,-23"/>
<text text-anchor="middle" x="122" y="-128.8" font-family="Times,serif" font-size="14.00">Log</text>
<polyline fill="none" stroke="black" points="0,-121 244,-121 "/>
<text text-anchor="start" x="8" y="-105.8" font-family="Times,serif" font-size="14.00">id :integer</text>
<text text-anchor="start" x="8" y="-90.8" font-family="Times,serif" font-size="14.00">request_id :character varying</text>
<text text-anchor="start" x="8" y="-75.8" font-family="Times,serif" font-size="14.00">notes :text</text>
<text text-anchor="start" x="8" y="-60.8" font-family="Times,serif" font-size="14.00">timestamp :timestamp without time zone</text>
<text text-anchor="start" x="8" y="-45.8" font-family="Times,serif" font-size="14.00">created_at :timestamp without time zone</text>
<text text-anchor="start" x="8" y="-30.8" font-family="Times,serif" font-size="14.00">updated_at :timestamp without time zone</text>
</g>
<!-- ApplicationRecord&#45;&gt;Log -->
<g id="edge1" class="edge"><title>ApplicationRecord&#45;&gt;Log</title>
<path fill="none" stroke="black" d="M378.427,-373.335C367.167,-340.517 339.219,-267.721 298,-218 275.115,-190.394 245.469,-165.145 217.053,-144.214"/>
</g>
<!-- Course -->
<g id="node4" class="node"><title>Course</title>
<path fill="none" stroke="black" d="M274,-23C274,-23 494,-23 494,-23 500,-23 506,-29 506,-35 506,-35 506,-132 506,-132 506,-138 500,-144 494,-144 494,-144 274,-144 274,-144 268,-144 262,-138 262,-132 262,-132 262,-35 262,-35 262,-29 268,-23 274,-23"/>
<text text-anchor="middle" x="384" y="-128.8" font-family="Times,serif" font-size="14.00">Course</text>
<polyline fill="none" stroke="black" points="262,-121 506,-121 "/>
<text text-anchor="start" x="270" y="-105.8" font-family="Times,serif" font-size="14.00">id :integer</text>
<text text-anchor="start" x="270" y="-90.8" font-family="Times,serif" font-size="14.00">course_id :character varying</text>
<text text-anchor="start" x="270" y="-75.8" font-family="Times,serif" font-size="14.00">course_name :character varying</text>
<text text-anchor="start" x="270" y="-60.8" font-family="Times,serif" font-size="14.00">section_id :character varying</text>
<text text-anchor="start" x="270" y="-45.8" font-family="Times,serif" font-size="14.00">created_at :timestamp without time zone</text>
<text text-anchor="start" x="270" y="-30.8" font-family="Times,serif" font-size="14.00">updated_at :timestamp without time zone</text>
</g>
<!-- ApplicationRecord&#45;&gt;Course -->
<g id="edge2" class="edge"><title>ApplicationRecord&#45;&gt;Course</title>
<path fill="none" stroke="black" d="M384,-373.171C384,-329.869 384,-215.324 384,-144.228"/>
</g>
<!-- Limit -->
<g id="node7" class="node"><title>Limit</title>
<path fill="none" stroke="black" d="M536,-0.5C536,-0.5 756,-0.5 756,-0.5 762,-0.5 768,-6.5 768,-12.5 768,-12.5 768,-154.5 768,-154.5 768,-160.5 762,-166.5 756,-166.5 756,-166.5 536,-166.5 536,-166.5 530,-166.5 524,-160.5 524,-154.5 524,-154.5 524,-12.5 524,-12.5 524,-6.5 530,-0.5 536,-0.5"/>
<text text-anchor="middle" x="646" y="-151.3" font-family="Times,serif" font-size="14.00">Limit</text>
<polyline fill="none" stroke="black" points="524,-143.5 768,-143.5 "/>
<text text-anchor="start" x="532" y="-128.3" font-family="Times,serif" font-size="14.00">id :integer</text>
<text text-anchor="start" x="532" y="-113.3" font-family="Times,serif" font-size="14.00">classification :character varying</text>
<text text-anchor="start" x="532" y="-98.3" font-family="Times,serif" font-size="14.00">Very High :integer</text>
<text text-anchor="start" x="532" y="-83.3" font-family="Times,serif" font-size="14.00">High :integer</text>
<text text-anchor="start" x="532" y="-68.3" font-family="Times,serif" font-size="14.00">Normal :integer</text>
<text text-anchor="start" x="532" y="-53.3" font-family="Times,serif" font-size="14.00">Low :integer</text>
<text text-anchor="start" x="532" y="-38.3" font-family="Times,serif" font-size="14.00">Very Low :integer</text>
<text text-anchor="start" x="532" y="-23.3" font-family="Times,serif" font-size="14.00">created_at :timestamp without time zone</text>
<text text-anchor="start" x="532" y="-8.3" font-family="Times,serif" font-size="14.00">updated_at :timestamp without time zone</text>
</g>
<!-- ApplicationRecord&#45;&gt;Limit -->
<g id="edge3" class="edge"><title>ApplicationRecord&#45;&gt;Limit</title>
<path fill="none" stroke="black" d="M389.573,-373.335C400.833,-340.517 428.781,-267.721 470,-218 485.665,-199.104 504.497,-181.312 523.934,-165.254"/>
</g>
<!-- Major -->
<g id="node5" class="node"><title>Major</title>
<path fill="none" stroke="black" d="M491,-361C491,-361 635,-361 635,-361 641,-361 647,-367 647,-373 647,-373 647,-410 647,-410 647,-416 641,-422 635,-422 635,-422 491,-422 491,-422 485,-422 479,-416 479,-410 479,-410 479,-373 479,-373 479,-367 485,-361 491,-361"/>
<text text-anchor="middle" x="563" y="-406.8" font-family="Times,serif" font-size="14.00">Major</text>
<polyline fill="none" stroke="black" points="479,-399 647,-399 "/>
<text text-anchor="start" x="487" y="-383.8" font-family="Times,serif" font-size="14.00">id :integer</text>
<text text-anchor="start" x="487" y="-368.8" font-family="Times,serif" font-size="14.00">major_id :character varying</text>
</g>
<!-- Student -->
<g id="node6" class="node"><title>Student</title>
<path fill="none" stroke="black" d="M677.5,-241C677.5,-241 964.5,-241 964.5,-241 970.5,-241 976.5,-247 976.5,-253 976.5,-253 976.5,-530 976.5,-530 976.5,-536 970.5,-542 964.5,-542 964.5,-542 677.5,-542 677.5,-542 671.5,-542 665.5,-536 665.5,-530 665.5,-530 665.5,-253 665.5,-253 665.5,-247 671.5,-241 677.5,-241"/>
<text text-anchor="middle" x="821" y="-526.8" font-family="Times,serif" font-size="14.00">Student</text>
<polyline fill="none" stroke="black" points="665.5,-519 976.5,-519 "/>
<text text-anchor="start" x="673.5" y="-503.8" font-family="Times,serif" font-size="14.00">id :integer</text>
<text text-anchor="start" x="673.5" y="-488.8" font-family="Times,serif" font-size="14.00">uin :character varying</text>
<text text-anchor="start" x="673.5" y="-473.8" font-family="Times,serif" font-size="14.00">lastname :character varying</text>
<text text-anchor="start" x="673.5" y="-458.8" font-family="Times,serif" font-size="14.00">firstname :character varying</text>
<text text-anchor="start" x="673.5" y="-443.8" font-family="Times,serif" font-size="14.00">minor :character varying</text>
<text text-anchor="start" x="673.5" y="-428.8" font-family="Times,serif" font-size="14.00">password :character varying</text>
<text text-anchor="start" x="673.5" y="-413.8" font-family="Times,serif" font-size="14.00">major :character varying</text>
<text text-anchor="start" x="673.5" y="-398.8" font-family="Times,serif" font-size="14.00">classification :character varying</text>
<text text-anchor="start" x="673.5" y="-383.8" font-family="Times,serif" font-size="14.00">name :character varying</text>
<text text-anchor="start" x="673.5" y="-368.8" font-family="Times,serif" font-size="14.00">email :character varying</text>
<text text-anchor="start" x="673.5" y="-353.8" font-family="Times,serif" font-size="14.00">created_at :timestamp without time zone</text>
<text text-anchor="start" x="673.5" y="-338.8" font-family="Times,serif" font-size="14.00">updated_at :timestamp without time zone</text>
<text text-anchor="start" x="673.5" y="-323.8" font-family="Times,serif" font-size="14.00">email_confirmed :boolean</text>
<text text-anchor="start" x="673.5" y="-308.8" font-family="Times,serif" font-size="14.00">confirm_token :character varying</text>
<text text-anchor="start" x="673.5" y="-293.8" font-family="Times,serif" font-size="14.00">email_confirm_sent_at :timestamp without time zone</text>
<text text-anchor="start" x="673.5" y="-278.8" font-family="Times,serif" font-size="14.00">reset_password_confirm_token :character varying</text>
<text text-anchor="start" x="673.5" y="-263.8" font-family="Times,serif" font-size="14.00">reset_sent_at :timestamp without time zone</text>
<text text-anchor="start" x="673.5" y="-248.8" font-family="Times,serif" font-size="14.00">isVerified :boolean</text>
</g>
<!-- StudentRequestArchival -->
<g id="node8" class="node"><title>StudentRequestArchival</title>
<path fill="none" stroke="black" d="M1006.5,-226C1006.5,-226 1239.5,-226 1239.5,-226 1245.5,-226 1251.5,-232 1251.5,-238 1251.5,-238 1251.5,-545 1251.5,-545 1251.5,-551 1245.5,-557 1239.5,-557 1239.5,-557 1006.5,-557 1006.5,-557 1000.5,-557 994.5,-551 994.5,-545 994.5,-545 994.5,-238 994.5,-238 994.5,-232 1000.5,-226 1006.5,-226"/>
<text text-anchor="middle" x="1123" y="-541.8" font-family="Times,serif" font-size="14.00">StudentRequestArchival</text>
<polyline fill="none" stroke="black" points="994.5,-534 1251.5,-534 "/>
<text text-anchor="start" x="1002.5" y="-518.8" font-family="Times,serif" font-size="14.00">id :integer</text>
<text text-anchor="start" x="1002.5" y="-503.8" font-family="Times,serif" font-size="14.00">request_id :character varying</text>
<text text-anchor="start" x="1002.5" y="-488.8" font-family="Times,serif" font-size="14.00">uin :character varying</text>
<text text-anchor="start" x="1002.5" y="-473.8" font-family="Times,serif" font-size="14.00">name :character varying</text>
<text text-anchor="start" x="1002.5" y="-458.8" font-family="Times,serif" font-size="14.00">major :character varying</text>
<text text-anchor="start" x="1002.5" y="-443.8" font-family="Times,serif" font-size="14.00">classification :character varying</text>
<text text-anchor="start" x="1002.5" y="-428.8" font-family="Times,serif" font-size="14.00">minor :character varying</text>
<text text-anchor="start" x="1002.5" y="-413.8" font-family="Times,serif" font-size="14.00">email :character varying</text>
<text text-anchor="start" x="1002.5" y="-398.8" font-family="Times,serif" font-size="14.00">phone :character varying</text>
<text text-anchor="start" x="1002.5" y="-383.8" font-family="Times,serif" font-size="14.00">expected_graduation :character varying</text>
<text text-anchor="start" x="1002.5" y="-368.8" font-family="Times,serif" font-size="14.00">request_semester :character varying</text>
<text text-anchor="start" x="1002.5" y="-353.8" font-family="Times,serif" font-size="14.00">course_id :character varying</text>
<text text-anchor="start" x="1002.5" y="-338.8" font-family="Times,serif" font-size="14.00">section_id :character varying</text>
<text text-anchor="start" x="1002.5" y="-323.8" font-family="Times,serif" font-size="14.00">notes :text</text>
<text text-anchor="start" x="1002.5" y="-308.8" font-family="Times,serif" font-size="14.00">state :character varying</text>
<text text-anchor="start" x="1002.5" y="-293.8" font-family="Times,serif" font-size="14.00">priority :character varying</text>
<text text-anchor="start" x="1002.5" y="-278.8" font-family="Times,serif" font-size="14.00">creation_date :timestamp without time zone</text>
<text text-anchor="start" x="1002.5" y="-263.8" font-family="Times,serif" font-size="14.00">last_updated :timestamp without time zone</text>
<text text-anchor="start" x="1002.5" y="-248.8" font-family="Times,serif" font-size="14.00">notes_to_student :text</text>
<text text-anchor="start" x="1002.5" y="-233.8" font-family="Times,serif" font-size="14.00">admin_notes :text</text>
</g>
<!-- StudentRequest -->
<g id="node9" class="node"><title>StudentRequest</title>
<path fill="none" stroke="black" d="M1281.5,-218.5C1281.5,-218.5 1514.5,-218.5 1514.5,-218.5 1520.5,-218.5 1526.5,-224.5 1526.5,-230.5 1526.5,-230.5 1526.5,-552.5 1526.5,-552.5 1526.5,-558.5 1520.5,-564.5 1514.5,-564.5 1514.5,-564.5 1281.5,-564.5 1281.5,-564.5 1275.5,-564.5 1269.5,-558.5 1269.5,-552.5 1269.5,-552.5 1269.5,-230.5 1269.5,-230.5 1269.5,-224.5 1275.5,-218.5 1281.5,-218.5"/>
<text text-anchor="middle" x="1398" y="-549.3" font-family="Times,serif" font-size="14.00">StudentRequest</text>
<polyline fill="none" stroke="black" points="1269.5,-541.5 1526.5,-541.5 "/>
<text text-anchor="start" x="1277.5" y="-526.3" font-family="Times,serif" font-size="14.00">id :integer</text>
<text text-anchor="start" x="1277.5" y="-511.3" font-family="Times,serif" font-size="14.00">request_id :character varying</text>
<text text-anchor="start" x="1277.5" y="-496.3" font-family="Times,serif" font-size="14.00">uin :character varying</text>
<text text-anchor="start" x="1277.5" y="-481.3" font-family="Times,serif" font-size="14.00">name :character varying</text>
<text text-anchor="start" x="1277.5" y="-466.3" font-family="Times,serif" font-size="14.00">major :character varying</text>
<text text-anchor="start" x="1277.5" y="-451.3" font-family="Times,serif" font-size="14.00">classification :character varying</text>
<text text-anchor="start" x="1277.5" y="-436.3" font-family="Times,serif" font-size="14.00">minor :character varying</text>
<text text-anchor="start" x="1277.5" y="-421.3" font-family="Times,serif" font-size="14.00">email :character varying</text>
<text text-anchor="start" x="1277.5" y="-406.3" font-family="Times,serif" font-size="14.00">phone :character varying</text>
<text text-anchor="start" x="1277.5" y="-391.3" font-family="Times,serif" font-size="14.00">expected_graduation :character varying</text>
<text text-anchor="start" x="1277.5" y="-376.3" font-family="Times,serif" font-size="14.00">request_semester :character varying</text>
<text text-anchor="start" x="1277.5" y="-361.3" font-family="Times,serif" font-size="14.00">course_id :character varying</text>
<text text-anchor="start" x="1277.5" y="-346.3" font-family="Times,serif" font-size="14.00">section_id :character varying</text>
<text text-anchor="start" x="1277.5" y="-331.3" font-family="Times,serif" font-size="14.00">notes :text</text>
<text text-anchor="start" x="1277.5" y="-316.3" font-family="Times,serif" font-size="14.00">state :character varying</text>
<text text-anchor="start" x="1277.5" y="-301.3" font-family="Times,serif" font-size="14.00">priority :character varying</text>
<text text-anchor="start" x="1277.5" y="-286.3" font-family="Times,serif" font-size="14.00">creation_date :timestamp without time zone</text>
<text text-anchor="start" x="1277.5" y="-271.3" font-family="Times,serif" font-size="14.00">last_updated :timestamp without time zone</text>
<text text-anchor="start" x="1277.5" y="-256.3" font-family="Times,serif" font-size="14.00">notes_to_student :text</text>
<text text-anchor="start" x="1277.5" y="-241.3" font-family="Times,serif" font-size="14.00">admin_notes :text</text>
<text text-anchor="start" x="1277.5" y="-226.3" font-family="Times,serif" font-size="14.00">admin_priority :character varying</text>
</g>
<!-- Audited::Audit -->
<g id="node11" class="node"><title>Audited::Audit</title>
<ellipse fill="none" stroke="black" cx="1398" cy="-83.5" rx="63.8893" ry="18"/>
<text text-anchor="middle" x="1398" y="-79.8" font-family="Times,serif" font-size="14.00">Audited::Audit</text>
</g>
<!-- StudentRequest&#45;&gt;Audited::Audit -->
<g id="edge4" class="edge"><title>StudentRequest&#45;&gt;Audited::Audit</title>
<path fill="none" stroke="#7e2b5d" d="M1398,-210.17C1398,-171.498 1398,-135.233 1398,-111.695"/>
<ellipse fill="none" stroke="#7e2b5d" cx="1398" cy="-214.271" rx="4" ry="4"/>
<polygon fill="#7e2b5d" stroke="#7e2b5d" points="1398,-111.511 1402.5,-101.511 1398,-106.511 1398,-101.511 1398,-101.511 1398,-101.511 1398,-106.511 1393.5,-101.511 1398,-111.511 1398,-111.511"/>
<text text-anchor="middle" x="1414.5" y="-188.8" font-family="Times,serif" font-size="14.00">audits</text>
</g>
<!-- Admin -->
<g id="node10" class="node"><title>Admin</title>
<path fill="none" stroke="black" d="M1557,-338.5C1557,-338.5 1703,-338.5 1703,-338.5 1709,-338.5 1715,-344.5 1715,-350.5 1715,-350.5 1715,-432.5 1715,-432.5 1715,-438.5 1709,-444.5 1703,-444.5 1703,-444.5 1557,-444.5 1557,-444.5 1551,-444.5 1545,-438.5 1545,-432.5 1545,-432.5 1545,-350.5 1545,-350.5 1545,-344.5 1551,-338.5 1557,-338.5"/>
<text text-anchor="middle" x="1630" y="-429.3" font-family="Times,serif" font-size="14.00">Admin</text>
<polyline fill="none" stroke="black" points="1545,-421.5 1715,-421.5 "/>
<text text-anchor="start" x="1553" y="-406.3" font-family="Times,serif" font-size="14.00">id :integer</text>
<text text-anchor="start" x="1553" y="-391.3" font-family="Times,serif" font-size="14.00">uin :character varying</text>
<text text-anchor="start" x="1553" y="-376.3" font-family="Times,serif" font-size="14.00">name :character varying</text>
<text text-anchor="start" x="1553" y="-361.3" font-family="Times,serif" font-size="14.00">password :character varying</text>
<text text-anchor="start" x="1553" y="-346.3" font-family="Times,serif" font-size="14.00">email :character varying</text>
</g>
</g>
</svg>
