<?xml version="1.0" encoding="UTF-8" standalone="no"?>
<!DOCTYPE svg PUBLIC "-//W3C//DTD SVG 1.1//EN"
 "http://www.w3.org/Graphics/SVG/1.1/DTD/svg11.dtd">
<!-- Generated by graphviz version 2.38.0 (20140413.2041)
 -->
<!-- Title: models_diagram Pages: 1 -->
<svg width="1021pt" height="173pt"
 viewBox="0.00 0.00 1020.75 173.00" xmlns="http://www.w3.org/2000/svg" xmlns:xlink="http://www.w3.org/1999/xlink">
<g id="graph0" class="graph" transform="scale(1 1) rotate(0) translate(4 169)">
<title>models_diagram</title>
<polygon fill="none" stroke="none" points="-4,4 -4,-169 1016.75,-169 1016.75,4 -4,4"/>
<!-- _diagram_info -->
<g id="node1" class="node"><title>_diagram_info</title>
<text text-anchor="start" x="8" y="-150.6" font-family="Times,serif" font-size="13.00">Models diagram</text>
<text text-anchor="start" x="8" y="-136.6" font-family="Times,serif" font-size="13.00">Date: Apr 02 2020 &#45; 18:50</text>
<text text-anchor="start" x="8" y="-122.6" font-family="Times,serif" font-size="13.00">Migration version: 20191208225048</text>
<text text-anchor="start" x="8" y="-108.6" font-family="Times,serif" font-size="13.00">Generated by RailRoady 1.5.3</text>
<text text-anchor="start" x="8" y="-94.6" font-family="Times,serif" font-size="13.00">http://railroady.prestonlee.com</text>
</g>
<!-- ApplicationRecord -->
<g id="node2" class="node"><title>ApplicationRecord</title>
<ellipse fill="none" stroke="black" cx="309" cy="-126" rx="77.1866" ry="18"/>
<text text-anchor="middle" x="309" y="-122.3" font-family="Times,serif" font-size="14.00">ApplicationRecord</text>
</g>
<!-- Log -->
<g id="node3" class="node"><title>Log</title>
<ellipse fill="none" stroke="black" cx="228" cy="-18" rx="27" ry="18"/>
<text text-anchor="middle" x="228" y="-14.3" font-family="Times,serif" font-size="14.00">Log</text>
</g>
<!-- ApplicationRecord&#45;&gt;Log -->
<g id="edge1" class="edge"><title>ApplicationRecord&#45;&gt;Log</title>
<path fill="none" stroke="black" d="M295.986,-107.969C280.423,-87.6033 254.608,-53.8207 239.667,-34.2683"/>
</g>
<!-- Course -->
<g id="node4" class="node"><title>Course</title>
<ellipse fill="none" stroke="black" cx="309" cy="-18" rx="35.9954" ry="18"/>
<text text-anchor="middle" x="309" y="-14.3" font-family="Times,serif" font-size="14.00">Course</text>
</g>
<!-- ApplicationRecord&#45;&gt;Course -->
<g id="edge2" class="edge"><title>ApplicationRecord&#45;&gt;Course</title>
<path fill="none" stroke="black" d="M309,-107.969C309,-88.3056 309,-56.1346 309,-36.3406"/>
</g>
<!-- Limit -->
<g id="node7" class="node"><title>Limit</title>
<ellipse fill="none" stroke="black" cx="393" cy="-18" rx="30.5947" ry="18"/>
<text text-anchor="middle" x="393" y="-14.3" font-family="Times,serif" font-size="14.00">Limit</text>
</g>
<!-- ApplicationRecord&#45;&gt;Limit -->
<g id="edge3" class="edge"><title>ApplicationRecord&#45;&gt;Limit</title>
<path fill="none" stroke="black" d="M322.496,-107.969C338.542,-87.7203 365.099,-54.2086 380.632,-34.6068"/>
</g>
<!-- Major -->
<g id="node5" class="node"><title>Major</title>
<ellipse fill="none" stroke="black" cx="437" cy="-126" rx="32.4942" ry="18"/>
<text text-anchor="middle" x="437" y="-122.3" font-family="Times,serif" font-size="14.00">Major</text>
</g>
<!-- Student -->
<g id="node6" class="node"><title>Student</title>
<ellipse fill="none" stroke="black" cx="525" cy="-126" rx="37.8943" ry="18"/>
<text text-anchor="middle" x="525" y="-122.3" font-family="Times,serif" font-size="14.00">Student</text>
</g>
<!-- StudentRequestArchival -->
<g id="node8" class="node"><title>StudentRequestArchival</title>
<ellipse fill="none" stroke="black" cx="678" cy="-126" rx="96.6831" ry="18"/>
<text text-anchor="middle" x="678" y="-122.3" font-family="Times,serif" font-size="14.00">StudentRequestArchival</text>
</g>
<!-- StudentRequest -->
<g id="node9" class="node"><title>StudentRequest</title>
<ellipse fill="none" stroke="black" cx="858" cy="-126" rx="65.7887" ry="18"/>
<text text-anchor="middle" x="858" y="-122.3" font-family="Times,serif" font-size="14.00">StudentRequest</text>
</g>
<!-- Audited::Audit -->
<g id="node11" class="node"><title>Audited::Audit</title>
<ellipse fill="none" stroke="black" cx="858" cy="-18" rx="63.8893" ry="18"/>
<text text-anchor="middle" x="858" y="-14.3" font-family="Times,serif" font-size="14.00">Audited::Audit</text>
</g>
<!-- StudentRequest&#45;&gt;Audited::Audit -->
<g id="edge4" class="edge"><title>StudentRequest&#45;&gt;Audited::Audit</title>
<path fill="none" stroke="#cb891b" d="M858,-99.7948C858,-83.735 858,-62.9268 858,-46.4496"/>
<ellipse fill="none" stroke="#cb891b" cx="858" cy="-103.969" rx="4" ry="4"/>
<polygon fill="#cb891b" stroke="#cb891b" points="858,-46.3406 862.5,-36.3406 858,-41.3406 858,-36.3406 858,-36.3406 858,-36.3406 858,-41.3406 853.5,-36.3407 858,-46.3406 858,-46.3406"/>
<text text-anchor="middle" x="874.5" y="-57.8" font-family="Times,serif" font-size="14.00">audits</text>
</g>
<!-- Admin -->
<g id="node10" class="node"><title>Admin</title>
<ellipse fill="none" stroke="black" cx="977" cy="-126" rx="35.9954" ry="18"/>
<text text-anchor="middle" x="977" y="-122.3" font-family="Times,serif" font-size="14.00">Admin</text>
</g>
</g>
</svg>
